<mxfile host="app.diagrams.net" modified="2021-08-26T01:18:31.633Z" agent="5.0 (Macintosh; Intel Mac OS X 10_15_7) AppleWebKit/537.36 (KHTML, like Gecko) Chrome/92.0.4515.107 Safari/537.36" etag="sI6hV-csJWD3JDbjYHXD" version="14.9.7" type="github">
  <diagram id="idzeipB2ZESW2gfNCK-s" name="Page-1">
    <mxGraphModel dx="1481" dy="376" grid="1" gridSize="10" guides="1" tooltips="1" connect="1" arrows="1" fold="1" page="1" pageScale="1" pageWidth="850" pageHeight="1100" math="0" shadow="0">
      <root>
        <mxCell id="0" />
        <mxCell id="1" parent="0" />
        <mxCell id="_9sOg1S1v-uvskMb3Ub2-10" value="" style="group" vertex="1" connectable="0" parent="1">
          <mxGeometry x="-130" y="650" width="285" height="250" as="geometry" />
        </mxCell>
        <mxCell id="_9sOg1S1v-uvskMb3Ub2-5" value="&lt;br&gt;&lt;br&gt;&lt;br&gt;&lt;br&gt;&lt;br&gt;&lt;br&gt;&lt;br&gt;&lt;br&gt;&lt;br&gt;&lt;br&gt;&lt;br&gt;&lt;br&gt;&lt;br&gt;&lt;br&gt;&lt;br&gt;&lt;br&gt;&lt;br&gt;&lt;font style=&quot;font-size: 36px&quot;&gt;Data&lt;/font&gt;" style="triangle;direction=north;html=1;strokeWidth=4;strokeColor=#ffffff;shadow=0;fontSize=10;fontColor=#FFFFFF;align=center;fontStyle=0;whiteSpace=wrap;spacing=10;fillColor=#99CCFF;" vertex="1" parent="_9sOg1S1v-uvskMb3Ub2-10">
          <mxGeometry width="285" height="249.99999999999997" as="geometry" />
        </mxCell>
        <mxCell id="_9sOg1S1v-uvskMb3Ub2-6" value="&lt;br&gt;&lt;br&gt;&lt;br&gt;&lt;br&gt;&lt;br&gt;&lt;br&gt;&lt;br&gt;&lt;br&gt;&lt;font style=&quot;font-size: 18px&quot;&gt;Información&amp;nbsp;&lt;/font&gt;" style="triangle;direction=north;html=1;strokeWidth=4;fillColor=#2F5B7C;strokeColor=#ffffff;shadow=0;fontSize=10;fontColor=#FFFFFF;align=center;fontStyle=0;whiteSpace=wrap;spacing=10;" vertex="1" parent="_9sOg1S1v-uvskMb3Ub2-10">
          <mxGeometry x="47.50000000000001" width="190.00000000000003" height="166.66666666666669" as="geometry" />
        </mxCell>
        <mxCell id="_9sOg1S1v-uvskMb3Ub2-7" value="&lt;br&gt;&lt;br&gt;&lt;br&gt;&lt;br&gt;&lt;br&gt;Conocimiento&amp;nbsp;" style="triangle;direction=north;html=1;strokeWidth=4;fillColor=#23445D;strokeColor=#ffffff;shadow=0;fontSize=10;fontColor=#FFFFFF;align=center;fontStyle=0;whiteSpace=wrap;spacing=10;" vertex="1" parent="_9sOg1S1v-uvskMb3Ub2-10">
          <mxGeometry x="95.00000000000001" width="95.00000000000001" height="83.33333333333334" as="geometry" />
        </mxCell>
        <mxCell id="_9sOg1S1v-uvskMb3Ub2-11" value="" style="aspect=fixed;html=1;points=[];align=center;image;fontSize=12;image=img/lib/azure2/databases/SQL_Server.svg;" vertex="1" parent="_9sOg1S1v-uvskMb3Ub2-10">
          <mxGeometry x="50.47171875" y="189.65517241379308" width="43.103448275862064" height="43.103448275862064" as="geometry" />
        </mxCell>
        <mxCell id="_9sOg1S1v-uvskMb3Ub2-12" value="" style="aspect=fixed;html=1;points=[];align=center;image;fontSize=12;image=img/lib/azure2/databases/Azure_SQL.svg;" vertex="1" parent="_9sOg1S1v-uvskMb3Ub2-10">
          <mxGeometry x="189.99703125000005" y="189.65517241379308" width="55.172413793103445" height="39.6551724137931" as="geometry" />
        </mxCell>
        <mxCell id="_9sOg1S1v-uvskMb3Ub2-13" value="" style="aspect=fixed;html=1;points=[];align=center;image;fontSize=12;image=img/lib/azure2/analytics/Analysis_Services.svg;fillColor=#99CCFF;" vertex="1" parent="_9sOg1S1v-uvskMb3Ub2-10">
          <mxGeometry x="124.6875" y="34.48275862068965" width="33.94827586206897" height="25.86206896551724" as="geometry" />
        </mxCell>
        <mxCell id="_9sOg1S1v-uvskMb3Ub2-14" value="" style="aspect=fixed;html=1;points=[];align=center;image;fontSize=12;image=img/lib/azure2/blockchain/Consortium.svg;fillColor=#99CCFF;" vertex="1" parent="_9sOg1S1v-uvskMb3Ub2-10">
          <mxGeometry x="169.21875" y="129.3103448275862" width="32.75862068965517" height="32.75862068965517" as="geometry" />
        </mxCell>
        <mxCell id="_9sOg1S1v-uvskMb3Ub2-47" value="" style="verticalLabelPosition=bottom;verticalAlign=top;html=1;shape=mxgraph.basic.partConcEllipse;startAngle=0.25;endAngle=0.75;arcWidth=0.25;fillColor=#10739E;strokeColor=none;" vertex="1" parent="1">
          <mxGeometry x="170" y="690" width="120" height="120" as="geometry" />
        </mxCell>
        <mxCell id="_9sOg1S1v-uvskMb3Ub2-48" value="" style="verticalLabelPosition=bottom;verticalAlign=top;html=1;shape=mxgraph.basic.partConcEllipse;startAngle=0.75;endAngle=0.25;arcWidth=0.25;fillColor=#F2931E;strokeColor=none;" vertex="1" parent="1">
          <mxGeometry x="275" y="690" width="120" height="120" as="geometry" />
        </mxCell>
        <mxCell id="_9sOg1S1v-uvskMb3Ub2-49" value="" style="verticalLabelPosition=bottom;verticalAlign=top;html=1;shape=mxgraph.basic.partConcEllipse;startAngle=0.25;endAngle=0.75;arcWidth=0.25;fillColor=#AE4132;strokeColor=none;" vertex="1" parent="1">
          <mxGeometry x="380" y="690" width="120" height="120" as="geometry" />
        </mxCell>
        <mxCell id="_9sOg1S1v-uvskMb3Ub2-50" value="" style="verticalLabelPosition=bottom;verticalAlign=top;html=1;shape=mxgraph.basic.partConcEllipse;startAngle=0.75;endAngle=0.25;arcWidth=0.25;fillColor=#23445D;strokeColor=none;" vertex="1" parent="1">
          <mxGeometry x="485" y="690" width="120" height="120" as="geometry" />
        </mxCell>
        <mxCell id="_9sOg1S1v-uvskMb3Ub2-83" style="edgeStyle=orthogonalEdgeStyle;curved=1;rounded=0;orthogonalLoop=1;jettySize=auto;html=1;entryX=0;entryY=0.5;entryDx=0;entryDy=0;strokeColor=#808080;" edge="1" parent="1" source="_9sOg1S1v-uvskMb3Ub2-51" target="_9sOg1S1v-uvskMb3Ub2-82">
          <mxGeometry relative="1" as="geometry" />
        </mxCell>
        <mxCell id="_9sOg1S1v-uvskMb3Ub2-51" value="" style="verticalLabelPosition=bottom;verticalAlign=top;html=1;shape=mxgraph.basic.partConcEllipse;startAngle=0.25;endAngle=0.75;arcWidth=0.25;fillColor=#15AA96;strokeColor=none;" vertex="1" parent="1">
          <mxGeometry x="590" y="690" width="120" height="120" as="geometry" />
        </mxCell>
        <mxCell id="_9sOg1S1v-uvskMb3Ub2-52" value="1" style="shape=ellipse;strokeWidth=6;strokeColor=#10739E;fontSize=15;html=0;fontStyle=1;fontColor=#10739E;fillColor=#99CCFF;" vertex="1" parent="1">
          <mxGeometry x="205" y="725" width="50" height="50" as="geometry" />
        </mxCell>
        <mxCell id="_9sOg1S1v-uvskMb3Ub2-62" style="edgeStyle=orthogonalEdgeStyle;rounded=0;orthogonalLoop=1;jettySize=auto;html=1;curved=1;" edge="1" parent="1" source="_9sOg1S1v-uvskMb3Ub2-53" target="_9sOg1S1v-uvskMb3Ub2-58">
          <mxGeometry relative="1" as="geometry" />
        </mxCell>
        <mxCell id="_9sOg1S1v-uvskMb3Ub2-53" value="2" style="shape=ellipse;strokeWidth=6;strokeColor=#F2931E;fontSize=15;html=0;fontStyle=1;fontColor=#F2931E;fillColor=#99CCFF;" vertex="1" parent="1">
          <mxGeometry x="310" y="725" width="50" height="50" as="geometry" />
        </mxCell>
        <mxCell id="_9sOg1S1v-uvskMb3Ub2-64" style="edgeStyle=orthogonalEdgeStyle;rounded=0;orthogonalLoop=1;jettySize=auto;html=1;curved=1;" edge="1" parent="1" source="_9sOg1S1v-uvskMb3Ub2-54" target="_9sOg1S1v-uvskMb3Ub2-59">
          <mxGeometry relative="1" as="geometry" />
        </mxCell>
        <mxCell id="_9sOg1S1v-uvskMb3Ub2-54" value="3" style="shape=ellipse;strokeWidth=6;strokeColor=#AE4132;fontSize=15;html=0;fontStyle=1;fontColor=#AE4132;fillColor=#99CCFF;" vertex="1" parent="1">
          <mxGeometry x="415" y="725" width="50" height="50" as="geometry" />
        </mxCell>
        <mxCell id="_9sOg1S1v-uvskMb3Ub2-63" style="edgeStyle=orthogonalEdgeStyle;rounded=0;orthogonalLoop=1;jettySize=auto;html=1;entryX=0.5;entryY=1;entryDx=0;entryDy=0;" edge="1" parent="1" source="_9sOg1S1v-uvskMb3Ub2-55" target="_9sOg1S1v-uvskMb3Ub2-60">
          <mxGeometry relative="1" as="geometry" />
        </mxCell>
        <mxCell id="_9sOg1S1v-uvskMb3Ub2-55" value="4" style="shape=ellipse;strokeWidth=6;strokeColor=#23445D;fontSize=15;html=0;fontStyle=1;fontColor=#23445D;fillColor=#99CCFF;" vertex="1" parent="1">
          <mxGeometry x="520" y="725" width="50" height="50" as="geometry" />
        </mxCell>
        <mxCell id="_9sOg1S1v-uvskMb3Ub2-65" style="edgeStyle=orthogonalEdgeStyle;rounded=0;orthogonalLoop=1;jettySize=auto;html=1;exitX=0.5;exitY=1;exitDx=0;exitDy=0;entryX=0.25;entryY=0;entryDx=0;entryDy=0;" edge="1" parent="1" source="_9sOg1S1v-uvskMb3Ub2-56" target="_9sOg1S1v-uvskMb3Ub2-61">
          <mxGeometry relative="1" as="geometry" />
        </mxCell>
        <mxCell id="_9sOg1S1v-uvskMb3Ub2-56" value="5" style="shape=ellipse;strokeWidth=6;strokeColor=#12AAB5;fontSize=15;html=0;fontStyle=1;fontColor=#12AAB5;fillColor=#99CCFF;" vertex="1" parent="1">
          <mxGeometry x="625" y="725" width="50" height="50" as="geometry" />
        </mxCell>
        <mxCell id="_9sOg1S1v-uvskMb3Ub2-57" value="&lt;font color=&quot;#10739e&quot;&gt;&lt;b&gt;Business Intelligence&lt;/b&gt;&lt;/font&gt;" style="rounded=1;strokeColor=none;fillColor=#EEEEEE;align=center;arcSize=12;verticalAlign=top;whiteSpace=wrap;html=1;fontSize=12;" vertex="1" parent="1">
          <mxGeometry x="170" y="820" width="120" height="80" as="geometry" />
        </mxCell>
        <mxCell id="_9sOg1S1v-uvskMb3Ub2-58" value="&lt;div&gt;&lt;font color=&quot;#777777&quot; face=&quot;verdana, arial&quot;&gt;&lt;span style=&quot;font-size: 10px&quot;&gt;el conjunto de metodologías, aplicaciones y tecnologías que permiten reunir, depurar y transformar datos de los sistemas transaccionales e información desestructurada (interna y externa a la compañía) en información estructurada&lt;/span&gt;&lt;/font&gt;&lt;/div&gt;" style="rounded=1;strokeColor=none;fillColor=#EEEEEE;align=left;arcSize=12;verticalAlign=top;whiteSpace=wrap;html=1;fontSize=12;" vertex="1" parent="1">
          <mxGeometry x="140" y="600" width="320" height="80" as="geometry" />
        </mxCell>
        <mxCell id="_9sOg1S1v-uvskMb3Ub2-59" value="&lt;span style=&quot;color: rgb(119 , 119 , 119) ; font-family: &amp;#34;verdana&amp;#34; , &amp;#34;arial&amp;#34; ; text-align: justify&quot;&gt;&lt;font style=&quot;font-size: 10px&quot;&gt;explotación directa (reporting, análisis OLTP / OLAP)&lt;/font&gt;&lt;/span&gt;" style="rounded=1;strokeColor=none;fillColor=#EEEEEE;align=center;arcSize=12;verticalAlign=top;whiteSpace=wrap;html=1;fontSize=12;" vertex="1" parent="1">
          <mxGeometry x="380" y="820" width="120" height="80" as="geometry" />
        </mxCell>
        <mxCell id="_9sOg1S1v-uvskMb3Ub2-60" value="&lt;span style=&quot;color: rgb(119 , 119 , 119) ; font-family: &amp;#34;verdana&amp;#34; , &amp;#34;arial&amp;#34;&quot;&gt;&lt;font style=&quot;font-size: 10px&quot;&gt;análisis y conversión en conocimiento, dando así soporte a la toma de decisiones sobre el negocio&lt;/font&gt;&lt;/span&gt;" style="rounded=1;strokeColor=none;fillColor=#EEEEEE;align=left;arcSize=12;verticalAlign=top;whiteSpace=wrap;html=1;fontSize=12;" vertex="1" parent="1">
          <mxGeometry x="485" y="600" width="120" height="80" as="geometry" />
        </mxCell>
        <mxCell id="_9sOg1S1v-uvskMb3Ub2-61" value="&lt;font color=&quot;#808080&quot; style=&quot;font-size: 10px&quot; face=&quot;Verdana&quot;&gt;La inteligencia de negocio actúa como un factor estratégico para una empresa u organización, generando una potencial ventaja competitiva&lt;/font&gt;" style="rounded=1;strokeColor=none;fillColor=#EEEEEE;align=left;arcSize=12;verticalAlign=top;whiteSpace=wrap;html=1;fontSize=12;" vertex="1" parent="1">
          <mxGeometry x="600" y="820" width="200" height="80" as="geometry" />
        </mxCell>
        <mxCell id="_9sOg1S1v-uvskMb3Ub2-81" style="edgeStyle=orthogonalEdgeStyle;rounded=0;orthogonalLoop=1;jettySize=auto;html=1;entryX=0;entryY=0.25;entryDx=0;entryDy=0;curved=1;" edge="1" parent="1" source="_9sOg1S1v-uvskMb3Ub2-6" target="_9sOg1S1v-uvskMb3Ub2-57">
          <mxGeometry relative="1" as="geometry" />
        </mxCell>
        <mxCell id="_9sOg1S1v-uvskMb3Ub2-85" style="edgeStyle=orthogonalEdgeStyle;curved=1;rounded=0;orthogonalLoop=1;jettySize=auto;html=1;entryX=0;entryY=0.5;entryDx=0;entryDy=0;strokeColor=#808080;" edge="1" parent="1" source="_9sOg1S1v-uvskMb3Ub2-82" target="_9sOg1S1v-uvskMb3Ub2-84">
          <mxGeometry relative="1" as="geometry" />
        </mxCell>
        <mxCell id="_9sOg1S1v-uvskMb3Ub2-88" style="edgeStyle=orthogonalEdgeStyle;curved=1;rounded=0;orthogonalLoop=1;jettySize=auto;html=1;entryX=0;entryY=0.5;entryDx=0;entryDy=0;strokeColor=#808080;" edge="1" parent="1" source="_9sOg1S1v-uvskMb3Ub2-82" target="_9sOg1S1v-uvskMb3Ub2-86">
          <mxGeometry relative="1" as="geometry" />
        </mxCell>
        <mxCell id="_9sOg1S1v-uvskMb3Ub2-89" style="edgeStyle=orthogonalEdgeStyle;curved=1;rounded=0;orthogonalLoop=1;jettySize=auto;html=1;entryX=0;entryY=0.5;entryDx=0;entryDy=0;strokeColor=#808080;" edge="1" parent="1" source="_9sOg1S1v-uvskMb3Ub2-82" target="_9sOg1S1v-uvskMb3Ub2-87">
          <mxGeometry relative="1" as="geometry" />
        </mxCell>
        <mxCell id="_9sOg1S1v-uvskMb3Ub2-82" value="&lt;div&gt;&lt;span style=&quot;color: rgb(119 , 119 , 119) ; font-family: &amp;#34;verdana&amp;#34; , &amp;#34;arial&amp;#34;&quot;&gt;&lt;font style=&quot;font-size: 10px&quot;&gt;información privilegiada para responder a los problemas de negocio&lt;/font&gt;&lt;/span&gt;&lt;/div&gt;" style="rounded=0;whiteSpace=wrap;html=1;fillColor=#99CCFF;strokeColor=none;align=center;" vertex="1" parent="1">
          <mxGeometry x="850" y="715" width="160" height="70" as="geometry" />
        </mxCell>
        <mxCell id="_9sOg1S1v-uvskMb3Ub2-84" value="&lt;font color=&quot;#808080&quot;&gt;&lt;span style=&quot;font-size: 10px&quot;&gt;Cuadros de Mando Integrales (CMI)&lt;/span&gt;&lt;/font&gt;" style="rounded=1;whiteSpace=wrap;html=1;fillColor=#99CCFF;strokeColor=none;" vertex="1" parent="1">
          <mxGeometry x="1060" y="624" width="120" height="60" as="geometry" />
        </mxCell>
        <mxCell id="_9sOg1S1v-uvskMb3Ub2-86" value="&lt;font color=&quot;#808080&quot;&gt;&lt;span style=&quot;font-size: 10px&quot;&gt;Sistemas de Soporte a la Decisión (DSS)&lt;/span&gt;&lt;/font&gt;" style="rounded=1;whiteSpace=wrap;html=1;fillColor=#99CCFF;strokeColor=none;" vertex="1" parent="1">
          <mxGeometry x="1060" y="720" width="120" height="60" as="geometry" />
        </mxCell>
        <mxCell id="_9sOg1S1v-uvskMb3Ub2-87" value="&lt;font color=&quot;#808080&quot;&gt;&lt;span style=&quot;font-size: 10px&quot;&gt;Sistemas de Información Ejecutiva (EIS)&lt;/span&gt;&lt;/font&gt;" style="rounded=1;whiteSpace=wrap;html=1;fillColor=#99CCFF;strokeColor=none;" vertex="1" parent="1">
          <mxGeometry x="1070" y="820" width="120" height="60" as="geometry" />
        </mxCell>
      </root>
    </mxGraphModel>
  </diagram>
</mxfile>
